<?xml version="1.0" encoding="UTF-8" standalone="no"?> <!-- Created with Vectornator for iOS (http://vectornator.io/) --><!DOCTYPE svg PUBLIC "-//W3C//DTD SVG 1.1//EN" "http://www.w3.org/Graphics/SVG/1.1/DTD/svg11.dtd">
<svg height="100%" style="fill-rule:nonzero;clip-rule:evenodd;stroke-linecap:round;stroke-linejoin:round;" xmlns:xlink="http://www.w3.org/1999/xlink" xmlns="http://www.w3.org/2000/svg" xml:space="preserve" width="100%" xmlns:vectornator="http://vectornator.io" version="1.1" viewBox="0 0 1024 1024">
<metadata>
<vectornator:setting key="DimensionsVisible" value="1"/>
<vectornator:setting key="PencilOnly" value="0"/>
<vectornator:setting key="SnapToPoints" value="0"/>
<vectornator:setting key="GuidesVisible" value="1"/>
<vectornator:setting key="OutlineMode" value="0"/>
<vectornator:setting key="RulersVisible" value="1"/>
<vectornator:setting key="SnapToEdges" value="0"/>
<vectornator:setting key="CMYKEnabledKey" value="0"/>
<vectornator:setting key="DisplayWhiteBackground" value="0"/>
<vectornator:setting key="doHistoryDisabled" value="0"/>
<vectornator:setting key="SnapToGuides" value="1"/>
<vectornator:setting key="TimeLapseWatermarkDisabled" value="0"/>
<vectornator:setting key="DynamicGuides" value="0"/>
<vectornator:setting key="SnapToGrid" value="0"/>
<vectornator:setting key="Units" value="Points"/>
<vectornator:setting key="IsolateActiveLayer" value="0"/>
</metadata>
<defs/>
<g id="Livello 1" vectornator:layerName="Livello 1">
<g opacity="0">
<path d="M2.46956e-05-4.74257e-06L1024-4.74257e-06L1024+1024L2.46956e-05+1024L2.46956e-05-4.74257e-06Z" opacity="0" fill="#f5fafa"/>
<path d="" opacity="1" fill="none"/>
</g>
<g opacity="1">
<path d="M521.062+115.344C510.261+115.646+501.73+124.668+502.031+135.469C502.702+148.095+503.489+160.709+504.5+173.312C505.101+180.803+505.755+188.289+506.656+195.75C507.355+201.537+508.389+207.238+509.25+213C509.559+215.068+509.84+217.171+510.062+219.25C510.284+221.322+510.397+223.401+510.656+225.469C510.85+227.012+511.106+228.557+511.344+230.094C511.978+234.196+512.778+238.256+513.5+242.344C514.306+246.909+515.1+251.497+515.906+256.062C518.21+269.101+520.396+282.152+522.719+295.188C530.794+340.5+539.28+385.727+547.906+430.938C545.911+396.137+543.854+361.333+542.5+326.5C542.07+315.445+541.613+304.405+541.375+293.344C541.126+281.745+540.886+270.133+540.906+258.531C540.917+252.422+540.913+246.295+541.031+240.188C541.11+236.09+541.308+232.004+541.344+227.906C541.394+222.242+540.918+216.601+541.031+210.938C541.146+205.202+541.497+199.458+541.531+193.719C541.581+185.282+541.453+176.842+541.375+168.406C541.27+157.056+541.188+145.726+541.156+134.375C540.854+123.574+531.864+115.042+521.062+115.344Z" opacity="1" fill="#007300"/>
<path d="M530+596.75C529.872+631.49+530.042+666.232+529.438+700.969C529.262+711.075+529.108+721.179+528.75+731.281C528.322+743.354+527.812+755.448+526.969+767.5C526.583+773.02+526.201+778.55+525.719+784.062C525.369+788.067+524.877+792.058+524.531+796.062C524.058+801.542+524.04+807.023+523.531+812.5C522.975+818.488+522.051+824.447+521.5+830.438C520.859+837.406+520.288+844.375+519.656+851.344C518.569+863.344+517.314+875.314+515.906+887.281C514.918+898.041+522.834+907.575+533.594+908.562C544.354+909.55+553.887+901.635+554.875+890.875C556.18+871.132+557.072+851.321+556.5+831.531C556.32+825.317+555.678+819.167+555.281+812.969C554.92+807.32+555.021+801.642+554.531+796C554.088+790.895+553.425+785.817+552.906+780.719C551.252+764.471+549.424+748.249+547.5+732.031C542.142+686.874+535.879+641.842+530+596.75Z" opacity="1" fill="#0000ca"/>
<path d="M128.25+492C117.445+491.868+108.57+500.539+108.438+511.344C108.305+522.148+116.945+530.993+127.75+531.125C148.632+530.886+169.545+530.705+190.406+529.656C197.025+529.323+203.583+528.559+210.188+528.062C216.22+527.609+222.282+527.641+228.312+527.156C232.709+526.803+237.078+526.288+241.469+525.875C246.402+525.411+251.346+525.008+256.281+524.562C269.979+523.325+283.702+522.22+297.406+521.062C307.269+520.23+317.137+519.484+327+518.656C365.872+515.395+404.726+512.068+443.562+508.406C395.295+506.973+347.021+505.21+298.812+502.375C285.678+501.602+272.555+500.802+259.438+499.781C253.422+499.313+247.386+498.868+241.375+498.344C237+497.963+232.628+497.464+228.25+497.125C222.239+496.66+216.229+496.708+210.219+496.25C203.659+495.75+197.134+494.951+190.562+494.562C169.811+493.337+149.022+492.747+128.25+492Z" opacity="1" fill="#ffc50b"/>
<path d="M618.5+492.219C662.793+504.177+706.824+517.095+751.156+528.906C760.442+531.38+769.75+533.753+779.062+536.125C784.33+537.467+789.597+538.739+794.906+539.906C798.858+540.775+802.79+541.705+806.781+542.375C812.112+543.269+817.498+543.585+822.875+544.094C825.379+544.331+827.902+544.668+830.406+544.906C834.195+545.267+837.975+545.49+841.781+545.531C856.717+545.692+871.85+543.868+886.281+540C892.152+538.426+897.865+536.475+903.531+534.281C913.501+530.114+918.23+518.657+914.062+508.688C909.895+498.718+898.438+494.02+888.469+498.188C879.908+502.035+871.001+504.963+861.844+507.031C854.651+508.656+847.346+509.704+840.031+510.594C834.648+511.248+829.164+512.139+823.75+512.406C822.282+512.479+820.814+512.558+819.344+512.562C817.13+512.569+814.901+512.355+812.688+512.375C807.483+512.421+802.299+512.565+797.094+512.469C787.642+512.294+778.196+511.482+768.781+510.688C732.709+507.642+696.83+502.611+660.969+497.75C646.817+495.832+632.669+494.006+618.5+492.219Z" opacity="1" fill="#9a1616"/>
</g>
</g>
</svg>
