<?xml version="1.0" encoding="UTF-8" standalone="no"?> <!-- Created with Vectornator for iOS (http://vectornator.io/) --><!DOCTYPE svg PUBLIC "-//W3C//DTD SVG 1.1//EN" "http://www.w3.org/Graphics/SVG/1.1/DTD/svg11.dtd">
<svg height="100%" style="fill-rule:nonzero;clip-rule:evenodd;stroke-linecap:round;stroke-linejoin:round;" xmlns:xlink="http://www.w3.org/1999/xlink" xmlns="http://www.w3.org/2000/svg" xml:space="preserve" width="100%" xmlns:vectornator="http://vectornator.io" version="1.1" viewBox="0 0 428 926">
<metadata>
<vectornator:setting key="DimensionsVisible" value="1"/>
<vectornator:setting key="PencilOnly" value="0"/>
<vectornator:setting key="SnapToPoints" value="0"/>
<vectornator:setting key="OutlineMode" value="0"/>
<vectornator:setting key="CMYKEnabledKey" value="0"/>
<vectornator:setting key="RulersVisible" value="1"/>
<vectornator:setting key="SnapToEdges" value="0"/>
<vectornator:setting key="GuidesVisible" value="1"/>
<vectornator:setting key="DisplayWhiteBackground" value="0"/>
<vectornator:setting key="doHistoryDisabled" value="0"/>
<vectornator:setting key="SnapToGuides" value="1"/>
<vectornator:setting key="TimeLapseWatermarkDisabled" value="0"/>
<vectornator:setting key="Units" value="Points"/>
<vectornator:setting key="IsolateActiveLayer" value="0"/>
<vectornator:setting key="SnapToGrid" value="0"/>
<vectornator:setting key="DynamicGuides" value="0"/>
</metadata>
<defs/>
<g id="Livello 1" vectornator:layerName="Livello 1">
<path stroke="#7290a0" stroke-width="1.23516" d="M-0.176478-0.747386L427.824-0.747386L427.824+925.253L-0.176478+925.253L-0.176478-0.747386Z" fill="#f5fafa" stroke-linecap="round" opacity="1" stroke-linejoin="round"/>
<path d="M0.483985+2.85577L430.164+2.85577L430.164+930.644L0.483985+930.644L0.483985+2.85577Z" opacity="0" fill="#2c3289"/>
<path d="M211.438+6.625C210.122+6.66378+209.086+7.74695+209.125+9.0625C209.294+12.754+209.497+16.4452+209.844+20.125C210.465+26.7138+211.458+33.2685+212.438+39.8125C213.695+48.2177+215.105+56.6166+216.5+65C215.759+55.7815+214.962+46.552+214.531+37.3125C214.09+27.8633+214.032+18.3957+213.906+8.9375C213.867+7.62195+212.753+6.58621+211.438+6.625Z" opacity="1" fill="#007300"/>
<path d="M213.094+860.719C213.285+869.953+213.602+879.169+213.469+888.406C213.337+897.54+212.702+906.698+211.75+915.781C211.634+917.092+212.595+918.26+213.906+918.375C215.217+918.491+216.384+917.53+216.5+916.219C216.779+912.322+217.009+908.409+216.938+904.5C216.825+898.329+216.313+892.175+215.75+886.031C214.975+877.579+213.997+869.158+213.094+860.719Z" opacity="1" fill="#0000ca"/>
<path d="M8.03125+460.875C6.71519+460.862+5.63753+461.903+5.625+463.219C5.61247+464.535+6.65269+465.612+7.96875+465.625C11.699+465.603+15.4276+465.62+19.1562+465.5C26.1992+465.274+33.2471+464.795+40.2812+464.375C49.3799+463.831+58.4696+463.289+67.5625+462.656C57.6285+462.553+47.7096+462.409+37.7812+462.031C27.8607+461.654+17.9575+461.121+8.03125+460.875Z" opacity="1" fill="#ffc50b"/>
<path d="M364.625+459.594C373.344+461.745+382.004+464.054+390.75+466.094C393.67+466.775+396.63+467.511+399.594+467.969C405.797+468.927+412.037+468.631+417.906+466.344C419.124+465.845+419.717+464.437+419.219+463.219C418.72+462.001+417.312+461.408+416.094+461.906C408.676+465.101+400.381+464.702+392.531+463.781C383.186+462.685+373.922+461.025+364.625+459.594Z" opacity="1" fill="#9a1616"/>
<g opacity="0">
<path d="M199+448L229+448L229+478L199+478L199+448Z" opacity="0" fill="#f5fafa"/>
<path d="" opacity="1" fill="#7290a0"/>
</g>
</g>
</svg>
